<?xml version="1.0" standalone="no"?><!DOCTYPE svg PUBLIC "-//W3C//DTD SVG 1.1//EN" "http://www.w3.org/Graphics/SVG/1.1/DTD/svg11.dtd"><svg t="1628652881217" class="icon" viewBox="0 0 1024 1024" version="1.1" xmlns="http://www.w3.org/2000/svg" p-id="1041" xmlns:xlink="http://www.w3.org/1999/xlink" width="200" height="200"><defs><style type="text/css"></style></defs><path d="M847.552 0c75.616 0 137.088 61.12 137.088 136.384v619.552c0 75.232-61.44 136.384-137.088 136.384H512v94.08C512 1009.888 493.12 1024 474.24 1024c-9.472 0-14.176-4.736-23.648-9.408l-137.056-126.976H176.448c-75.616 0-137.056-61.12-137.056-136.352V136.384C39.392 61.184 100.832 0 176.448 0h671.136z m-217.376 236.32h-236.32a17.728 17.728 0 0 0-17.728 17.696v109.024l-45.28-12.512a15.904 15.904 0 0 0-15.776 16v247.648c0 8.8 7.104 16 15.776 16h362.336c8.64 0 15.744-7.2 15.744-16v-247.68a15.904 15.904 0 0 0-15.744-16l-45.28 12.448V254.016a17.728 17.728 0 0 0-17.728-17.696z m-17.728 35.424v100.896l-101.44 27.84-99.424-27.584v-101.12h200.864z m-39.392 42.336h-122.08a5.92 5.92 0 0 0-5.92 5.92v19.68c0 3.232 2.688 5.92 5.92 5.92h122.08a5.92 5.92 0 0 0 5.92-5.92V320a5.888 5.888 0 0 0-5.92-5.92z" p-id="1042"></path></svg>