<?xml version="1.0" standalone="no"?><!DOCTYPE svg PUBLIC "-//W3C//DTD SVG 1.1//EN" "http://www.w3.org/Graphics/SVG/1.1/DTD/svg11.dtd"><svg t="1628652864957" class="icon" viewBox="0 0 1024 1024" version="1.1" xmlns="http://www.w3.org/2000/svg" p-id="787" xmlns:xlink="http://www.w3.org/1999/xlink" width="200" height="200"><defs><style type="text/css"></style></defs><path d="M984.64 136.384C984.64 61.12 923.2 0 847.584 0H176.48C100.8 0 39.36 61.152 39.36 136.384v614.88c0 75.2 61.44 136.32 137.088 136.32h137.056l137.056 127.008c2.56 1.28 4.768 2.56 6.816 3.712 5.536 3.2 9.92 5.696 16.8 5.696 18.88 0 37.824-14.08 37.824-37.6v-94.08h335.552c75.616 0 137.056-61.12 137.056-136.384V136.416zM577.728 224.736c16.48 0 31.008 11.488 43.104 34.112 9.056 16.96 5.76 29.12 1.472 36.352a34.944 34.944 0 0 1-4.352 5.76h80.32a16.96 16.96 0 0 1 16.928 16.96v67.712a16.928 16.928 0 0 1-16.96 16.928h-8.48v203.2a16.928 16.928 0 0 1-16.928 16.896H351.104a16.96 16.96 0 0 1-16.928-16.928v-203.2h-8.448a16.928 16.928 0 0 1-16.96-16.896V317.888a16.96 16.96 0 0 1 16.96-16.96h80.256a35.104 35.104 0 0 1-4.352-5.76c-4.32-7.2-7.584-19.36 1.472-36.32 12.096-22.624 26.56-34.112 43.072-34.112 19.008 0 38.72 15.52 58.656 46.144 2.464 3.84 4.832 7.68 7.136 11.616 2.272-3.904 4.672-7.776 7.136-11.616 19.904-30.624 39.616-46.144 58.624-46.144zM512 447.68a49.376 49.376 0 0 1 84.672 34.56c0 56.448-84.672 105.824-84.672 105.824s-84.64-49.376-84.64-105.824A49.376 49.376 0 0 1 512 447.68z" p-id="788"></path></svg>