<?xml version="1.0" standalone="no"?><!DOCTYPE svg PUBLIC "-//W3C//DTD SVG 1.1//EN" "http://www.w3.org/Graphics/SVG/1.1/DTD/svg11.dtd"><svg t="1629353685191" class="icon" viewBox="0 0 1024 1024" version="1.1" xmlns="http://www.w3.org/2000/svg" p-id="1150" xmlns:xlink="http://www.w3.org/1999/xlink" width="200" height="200"><defs><style type="text/css"></style></defs><path d="M281.884444 281.884444a23.694222 23.694222 0 0 1 33.564445 0l426.666667 426.666667a23.694222 23.694222 0 0 1-33.564445 33.564445l-157.098667-157.127112a82.716444 82.716444 0 0 1-16.469333 6.741334l40.874667 39.395555a23.694222 23.694222 0 0 1-10.695111 40.078223 218.823111 218.823111 0 0 1-53.162667 6.712888c-73.699556 0-138.325333-39.736889-182.727111-76.544a512.739556 512.739556 0 0 1-67.896889-68.323555 313.031111 313.031111 0 0 1-4.977778-6.286222l-0.284444-0.398223L256 526.222222l6.144-4.608-6.172444 4.579556a23.779556 23.779556 0 0 1 0.142222-28.529778l0.284444-0.398222a161.763556 161.763556 0 0 1 4.977778-6.286222 512.739556 512.739556 0 0 1 67.896889-68.295112 23.694222 23.694222 0 0 1 31.573333 1.166223l70.627556 68.124444c1.706667-6.826667 4.266667-13.368889 7.537778-19.427555L281.912889 315.448889a23.694222 23.694222 0 0 1 0-33.507556z m61.696 191.146667A472.775111 472.775111 0 0 0 305.578667 512a465.834667 465.834667 0 0 0 53.930666 52.849778c40.106667 33.28 92.046222 63.772444 147.342223 65.592889l-163.271112-157.411556z m170.382223 74.467556l-37.461334-37.489778a35.555556 35.555556 0 0 0 37.489778 37.489778zM512 346.083556c73.699556 0 138.325333 39.736889 182.727111 76.544a512.483556 512.483556 0 0 1 67.896889 68.323555c1.706667 2.076444 2.986667 3.726222 3.896889 4.920889l1.080889 1.365333 0.284444 0.398223c0.113778 0.142222 0.142222 0.170667-2.247111 1.934222l-2.275555 1.706666-10.979556 8.248889-3.356444 2.474667 19.000888-14.165333c6.257778 8.391111 6.257778 19.911111 0 28.359111l-0.142222 0.170666-0.284444 0.398223a154.510222 154.510222 0 0 1-4.977778 6.286222 513.080889 513.080889 0 0 1-67.896889 68.295111 23.694222 23.694222 0 1 1-30.236444-36.494222A466.062222 466.062222 0 0 0 718.392889 512a466.432 466.432 0 0 0-53.930667-52.849778c-41.358222-34.304-95.260444-65.678222-152.462222-65.678222a171.235556 171.235556 0 0 0-41.329778 5.233778 23.694222 23.694222 0 0 1-11.406222-45.994667A218.624 218.624 0 0 1 512 346.055111z" p-id="1151"></path></svg>