<?xml version="1.0" standalone="no"?><!DOCTYPE svg PUBLIC "-//W3C//DTD SVG 1.1//EN" "http://www.w3.org/Graphics/SVG/1.1/DTD/svg11.dtd"><svg t="1628841000184" class="icon" viewBox="0 0 1024 1024" version="1.1" xmlns="http://www.w3.org/2000/svg" p-id="1599" xmlns:xlink="http://www.w3.org/1999/xlink" width="200" height="200"><defs><style type="text/css"></style></defs><path d="M938.6496 215.04H85.3504a40.96 40.96 0 0 0-40.96 40.96v170.6496a40.96 40.96 0 0 0 19.8656 35.1232l29.8496 17.92 10.1888 5.6832a190.3104 190.3104 0 0 0 185.6-5.6832l8.7552-5.2736 8.7552 5.2736 10.24 5.6832a190.3104 190.3104 0 0 0 185.6-5.6832L512 474.368l8.7552 5.3248 10.1888 5.6832a190.3104 190.3104 0 0 0 185.6512-5.6832l8.704-5.2736 8.8064 5.2736a190.3104 190.3104 0 0 0 195.7888 0l29.8496-17.92a40.96 40.96 0 0 0 19.8656-35.1232V256a40.96 40.96 0 0 0-40.96-40.96z m-40.96 81.92v106.496l-9.9328 5.9904a108.3904 108.3904 0 0 1-111.5136 0l-29.8496-17.92a40.96 40.96 0 0 0-42.1376 0l-29.8496 17.92a108.3904 108.3904 0 0 1-111.5136 0l-29.7984-17.92a40.96 40.96 0 0 0-42.1888 0l-29.7984 17.92a108.3904 108.3904 0 0 1-111.5136 0l-29.8496-17.92a40.96 40.96 0 0 0-42.1376 0l-29.8496 17.92-8.0384 4.4032a108.3904 108.3904 0 0 1-103.4752-4.4032l-9.984-5.9904V296.96h771.4304z" p-id="1600"></path><path d="M853.3504 428.3904a40.96 40.96 0 0 1 40.6016 35.84l0.3584 5.12v469.2992a40.96 40.96 0 0 1-35.84 40.6528l-5.12 0.3072H170.6496a40.96 40.96 0 0 1-40.6016-35.84l-0.3584-5.12V479.744a40.96 40.96 0 0 1 81.6128-5.12l0.3072 5.12v417.9456h600.7296V469.3504a40.96 40.96 0 0 1 35.84-40.6528l5.12-0.3072zM853.3504 44.3904a40.96 40.96 0 0 1 40.6016 35.84l0.3584 5.12V256a40.96 40.96 0 0 1-81.6128 5.12l-0.3072-5.12-0.0512-129.7408H211.6096v125.952a40.96 40.96 0 0 1-35.84 40.6528l-5.12 0.3072a40.96 40.96 0 0 1-40.6016-35.84l-0.3584-5.12v-166.912a40.96 40.96 0 0 1 35.84-40.6016l5.12-0.3072h682.7008z" p-id="1601"></path><path d="M618.6496 641.6896H405.3504a40.96 40.96 0 0 0-40.96 40.96v256a40.96 40.96 0 0 0 40.96 40.96h213.2992a40.96 40.96 0 0 0 40.96-40.96v-256a40.96 40.96 0 0 0-40.96-40.96z m-40.96 81.92v174.08H446.2592v-174.08h131.4304z" p-id="1602"></path></svg>