<?xml version="1.0" standalone="no"?><!DOCTYPE svg PUBLIC "-//W3C//DTD SVG 1.1//EN" "http://www.w3.org/Graphics/SVG/1.1/DTD/svg11.dtd"><svg t="1628840995719" class="icon" viewBox="0 0 1024 1024" version="1.1" xmlns="http://www.w3.org/2000/svg" p-id="1472" xmlns:xlink="http://www.w3.org/1999/xlink" width="200" height="200"><defs><style type="text/css"></style></defs><path d="M373.248 556.4416h292.1984l12.3392 0.1536 32.6656 0.7168 18.6368 0.8192 16.384 1.2288c33.536 3.0208 53.9648 8.9088 75.9296 20.0704a211.6608 211.6608 0 0 1 92.5184 92.5184l4.4032 9.216 3.84 9.0624c1.1776 3.072 2.2528 6.144 3.2768 9.3696l2.7648 9.8816 1.2288 5.2224 2.048 11.264 0.8704 6.0416 1.4848 13.2096 1.1264 14.8992 0.8192 16.896 0.768 29.7472 0.3584 35.84 0.0512 53.4016a40.96 40.96 0 0 1-40.96 40.96h-768a40.96 40.96 0 0 1-40.96-40.96l0.1024-70.4 0.3584-26.3168 0.7168-23.04 1.1776-20.1728c2.816-37.6832 8.704-60.672 20.736-84.1216a211.6096 211.6096 0 0 1 92.4672-92.5184l9.216-4.4032 9.1136-3.84 9.3696-3.2768 9.8816-2.7648 10.7008-2.304c3.7376-0.7168 7.68-1.3312 11.776-1.8944l13.2096-1.4336 14.9504-1.1264 16.896-0.8704 29.696-0.768 35.84-0.3072z m290.56 81.92H363.1616l-30.9248 0.4608-24.8832 0.768-13.7216 0.8192-11.776 1.024-10.0352 1.28-8.704 1.536-7.5264 1.8944-6.656 2.2528-3.1744 1.2288-5.9904 2.816c-24.3712 12.4416-44.2368 32.256-56.6784 56.6784-6.656 13.0048-10.3424 28.672-12.288 57.4976l-0.8704 17.1008-0.5632 20.0704-0.3072 23.3984-0.1024 27.8528h686.0288v-10.752l-0.5632-46.592-0.9728-26.3168-0.9728-14.2336-1.28-11.9808a189.2352 189.2352 0 0 0-0.768-5.2224l-1.792-9.3696-2.2016-8.0384-2.56-7.1168-1.536-3.328-1.4336-2.9696a129.6896 129.6896 0 0 0-56.6784-56.6784l-6.656-3.072a86.016 86.016 0 0 0-3.4816-1.3312l-7.68-2.3552a115.4048 115.4048 0 0 0-4.2496-1.024l-9.472-1.792a200.3456 200.3456 0 0 0-5.3248-0.768l-11.9808-1.28-13.9776-1.024-25.6-0.9216-32-0.512zM512 87.04a190.3104 190.3104 0 1 1 0 380.5696A190.3104 190.3104 0 0 1 512 87.04z m0 81.92a108.3904 108.3904 0 1 0 0 216.7296A108.3904 108.3904 0 0 0 512 168.96z" p-id="1473"></path></svg>