<?xml version="1.0" standalone="no"?><!DOCTYPE svg PUBLIC "-//W3C//DTD SVG 1.1//EN" "http://www.w3.org/Graphics/SVG/1.1/DTD/svg11.dtd"><svg t="1628652876054" class="icon" viewBox="0 0 1024 1024" version="1.1" xmlns="http://www.w3.org/2000/svg" p-id="914" xmlns:xlink="http://www.w3.org/1999/xlink" width="200" height="200"><defs><style type="text/css"></style></defs><path d="M984.64 136.384C984.64 61.12 923.2 0 847.584 0H176.448C100.832 0 39.392 61.152 39.392 136.384v614.88c0 75.2 61.44 136.32 137.056 136.32h137.056l137.088 127.008c2.56 1.28 4.736 2.56 6.816 3.712 5.504 3.2 9.92 5.696 16.8 5.696 18.88 0 37.824-14.08 37.824-37.6v-94.08h335.552c75.616 0 137.056-61.12 137.056-136.384V136.416zM633.6 256.704s59.648-19.392 70.24 141.696c11.808 180.416-72.8 187.264-72.8 187.264-44.576-38.24-78.016-47.616-125.216-60.864l-8.096-2.272c-51.584-14.592-130.912-18.624-130.912-18.624v-139.232c186.656-8.704 266.784-107.936 266.784-107.936z m-287.232 110.336H295.36v135.84h51.008V367.04z m101.92 169.248s6.08 31.072 26.08 55.2c19.968 24.128 33.568 34.56 33.568 34.56s22.016 27.552-5.088 34.464l-10.464 2.752c-19.904 5.376-29.792 8-37.952-2.752-9.44-12.512-54.016-74.88-54.016-124.224h47.872z" p-id="915"></path></svg>