<?xml version="1.0" standalone="no"?><!DOCTYPE svg PUBLIC "-//W3C//DTD SVG 1.1//EN" "http://www.w3.org/Graphics/SVG/1.1/DTD/svg11.dtd"><svg t="1628747544831" class="icon" viewBox="0 0 1024 1024" version="1.1" xmlns="http://www.w3.org/2000/svg" p-id="1090" xmlns:xlink="http://www.w3.org/1999/xlink" width="200" height="200"><defs><style type="text/css"></style></defs><path d="M884.928 482.56v-44.48A373.568 373.568 0 0 0 511.296 64.64a373.568 373.568 0 0 0-373.568 373.504v44.544c-44.16 45.376-55.296 115.776-22.016 173.376a145.216 145.216 0 0 0 245.376 9.728l-131.2-227.008a148.48 148.48 0 0 0-29.888 5.568v-6.208A311.68 311.68 0 0 1 511.36 126.912a311.68 311.68 0 0 1 311.296 311.168v6.208a148.48 148.48 0 0 0-29.888-5.568l-131.072 227.072c11.904 17.216 27.52 32.192 46.848 43.392 13.632 7.808 27.904 12.544 42.432 15.616a187.008 187.008 0 0 1-156.736 126.72 41.408 41.408 0 0 0-41.344-39.808H469.76a41.536 41.536 0 0 0 0 83.008h83.008c15.872 0 29.44-8.96 36.48-22.016a207.36 207.36 0 0 0 182.592-144.768 144.64 144.64 0 0 0 135.04-71.808c33.28-57.6 22.08-128-22.016-173.504z" p-id="1091"></path></svg>