<?xml version="1.0" standalone="no"?><!DOCTYPE svg PUBLIC "-//W3C//DTD SVG 1.1//EN" "http://www.w3.org/Graphics/SVG/1.1/DTD/svg11.dtd"><svg t="1628846347149" class="icon" viewBox="0 0 1024 1024" version="1.1" xmlns="http://www.w3.org/2000/svg" p-id="1728" xmlns:xlink="http://www.w3.org/1999/xlink" width="200" height="200"><defs><style type="text/css"></style></defs><path d="M803.2 98.176H219.392c-53.696 0-97.408 43.008-97.408 95.808v638.4c0 52.928 43.712 95.808 97.408 95.808h584c53.504 0 97.408-43.072 97.216-95.808V193.984a96.64 96.64 0 0 0-97.408-95.808zM510.4 259.072c26.816 0 48.64 21.632 48.64 47.808a48.32 48.32 0 0 1-48.64 47.808 48.32 48.32 0 0 1-48.64-47.808c0-26.56 21.952-47.808 48.64-47.808z m-209.984 0c26.88 0 48.64 21.632 48.64 47.808a48.32 48.32 0 0 1-48.64 47.808 48.32 48.32 0 0 1-48.64-47.808 48 48 0 0 1 48.64-47.808z m-16.32 222.912h358.208c18.112 0 32.512 14.208 32.512 32s-14.4 32-32.512 32H284.096a32.064 32.064 0 0 1-32.512-32 32.32 32.32 0 0 1 32.512-32z m453.376 254.208H283.904a32.064 32.064 0 0 1-32.512-32c0-17.792 14.4-32 32.512-32h453.376c18.112 0 32.512 14.208 32.512 32 0 17.6-14.4 32-32.32 32z m-15.872-381.312a48.32 48.32 0 0 1-48.64-47.808c0-26.368 21.952-47.744 48.64-47.744 26.88 0 48.64 21.568 48.64 47.744 0 26.304-21.824 47.808-48.64 47.808z" p-id="1729"></path></svg>