<?xml version="1.0" standalone="no"?><!DOCTYPE svg PUBLIC "-//W3C//DTD SVG 1.1//EN" "http://www.w3.org/Graphics/SVG/1.1/DTD/svg11.dtd"><svg t="1628840985087" class="icon" viewBox="0 0 1024 1024" version="1.1" xmlns="http://www.w3.org/2000/svg" p-id="1217" xmlns:xlink="http://www.w3.org/1999/xlink" width="200" height="200"><defs><style type="text/css"></style></defs><path d="M364.3904 192a147.6096 147.6096 0 1 1 295.2192 0 147.6096 147.6096 0 0 1-295.2192 0zM512 126.3104a65.6896 65.6896 0 1 0 0 131.3792 65.6896 65.6896 0 0 0 0-131.3792zM445.5936 385.6896h132.8128c17.5104 0 29.2864 0 39.68 1.024a211.6096 211.6096 0 0 1 189.8496 189.8496c1.024 10.3936 1.024 22.2208 1.024 39.68v2.4064a40.96 40.96 0 0 1-40.96 40.96H256a40.96 40.96 0 0 1-40.96-40.96v-2.4064c0-17.4592 0-29.2864 1.024-39.6288a211.6096 211.6096 0 0 1 189.8496-189.9008c10.3936-1.024 22.1696-1.024 39.68-1.024z m-31.6416 82.5856a129.6896 129.6896 0 0 0-115.5072 109.4144h427.1104a129.6896 129.6896 0 0 0-115.5072-109.4144h-196.096z m0 0c5.8368-0.6144 13.2608-0.6656 34.048-0.6656h128c20.7872 0 28.2112 0.0512 34.048 0.6656h-196.096z" p-id="1218"></path><path d="M183.808 549.2224a40.96 40.96 0 0 1-12.288 56.576c-36.3008 23.3984-45.2096 43.4176-45.2096 55.552 0 8.6528 4.1984 21.0432 20.6848 36.6592 16.5888 15.6672 42.752 31.6928 78.5408 45.9776 48.64 19.456 111.2064 34.304 182.272 41.728l-31.4368-31.4368a40.96 40.96 0 0 1 57.9072-57.9072l94.5664 94.5152c107.008-1.6896 201.8816-19.8144 269.6192-46.8992 35.7888-14.336 61.952-30.3104 78.5408-45.9776 16.4864-15.616 20.6848-28.0064 20.6848-36.6592 0-12.1344-8.9088-32.1536-45.2096-55.552a40.96 40.96 0 1 1 44.3392-68.864c44.9024 28.8768 82.7904 70.5024 82.7904 124.416 0 38.4-19.6096 70.912-46.336 96.1536-26.624 25.1904-62.9248 45.9776-104.3456 62.5664-79.2576 31.6928-184.7808 50.9952-299.8272 52.736L434.2784 967.68a40.96 40.96 0 0 1-57.9072-57.9072l40.8064-40.8064c-84.48-7.3728-161.0752-24.4736-222.1056-48.8448-41.472-16.5888-77.7216-37.376-104.3456-62.5664-26.6752-25.2416-46.336-57.7024-46.336-96.1536 0-53.9136 37.888-95.5392 82.7904-124.416a40.96 40.96 0 0 1 56.576 12.288z" p-id="1219"></path></svg>