<?xml version="1.0" standalone="no"?><!DOCTYPE svg PUBLIC "-//W3C//DTD SVG 1.1//EN" "http://www.w3.org/Graphics/SVG/1.1/DTD/svg11.dtd"><svg t="1628840990876" class="icon" viewBox="0 0 1024 1024" version="1.1" xmlns="http://www.w3.org/2000/svg" p-id="1345" xmlns:xlink="http://www.w3.org/1999/xlink" width="200" height="200"><defs><style type="text/css"></style></defs><path d="M873.073778 39.822222a45.511111 45.511111 0 0 1 42.496 29.127111l71.111111 184.206223c29.752889 76.970667 5.404444 157.639111-49.208889 207.644444l0.227556 3.811556V938.666667a45.511111 45.511111 0 0 1-39.822223 45.169777l-5.688889 0.341334H133.688889a45.511111 45.511111 0 0 1-45.169778-39.822222l-0.341333-5.688889V464.611556l0.170666-3.811556C33.735111 410.851556 9.443556 330.24 39.139556 253.269333l71.168-184.32A45.511111 45.511111 0 0 1 152.803556 39.822222z m-205.880889 404.878222l-6.257778 6.883556a189.155556 189.155556 0 0 1-114.631111 57.230222l-10.524444 0.967111-10.808889 0.341334h-24.177778a187.164444 187.164444 0 0 1-136.192-58.595556L358.4 444.814222a188.074667 188.074667 0 0 1-131.982222 65.080889l-10.524445 0.284445c-12.686222 0-24.974222-1.251556-36.807111-3.527112v386.503112h667.534222V506.595556a187.960889 187.960889 0 0 1-173.283555-55.011556l-6.200889-6.883556zM841.898667 130.844444H183.921778L124.074667 286.037333c-23.779556 61.44 19.456 127.715556 84.024889 132.721778l7.850666 0.341333c51.143111 0 93.582222-39.822222 96.824889-88.860444l0.398222-10.979556c4.209778-58.538667 90.908444-55.466667 90.908445 3.128889l0.341333 8.305778a96.711111 96.711111 0 0 0 96.369778 88.405333h22.698667l7.850666-0.227555c48.298667-3.128889 86.983111-41.813333 90.055111-88.519111l0.227556-9.216 1.024-8.192c11.434667-53.475556 89.998222-45.169778 89.998222 9.443555l0.398222 8.305778c4.266667 49.379556 46.08 88.405333 96.824889 88.405333 68.892444 0 116.622222-69.176889 91.932445-133.12L841.955556 130.844444z" p-id="1346"></path></svg>